<?xml version="1.0" encoding="UTF-8"?>
<!DOCTYPE svg PUBLIC "-//W3C//DTD SVG 1.1//EN" "http://www.w3.org/Graphics/SVG/1.1/DTD/svg11.dtd">
<!-- Creator: CorelDRAW X8 -->
<svg xmlns="http://www.w3.org/2000/svg" xml:space="preserve" width="330.2mm" height="482.6mm" version="1.1" style="shape-rendering:geometricPrecision; text-rendering:geometricPrecision; image-rendering:optimizeQuality; fill-rule:evenodd; clip-rule:evenodd"
viewBox="0 0 33020 48260"
 xmlns:xlink="http://www.w3.org/1999/xlink">
 <defs>
  <style type="text/css">
   <![CDATA[
    .fil4 {fill:#FEFEFE}
    .fil0 {fill:#5B5B5B}
    .fil2 {fill:#5B5B5B}
    .fil1 {fill:#2B2A29}
    .fil3 {fill:#2B2A29}
   ]]>
  </style>
 </defs>
 <g id="Layer_x0020_1">
  <metadata id="CorelCorpID_0Corel-Layer"/>
  <g id="_2337660590624">
   <g>
    <polygon class="fil0" points="2021,26859 31234,26859 31234,28829 30997,29090 2021,28829 1786,27123 "/>
    <rect class="fil1" x="1786" y="27120" width="29213" height="1970"/>
   </g>
   <path class="fil1" d="M1800 22720c1093,0 2187,0 3280,0 -64,618 -405,961 -1003,1046 -335,0 -669,0 -1003,0 0,212 0,423 0,634 582,0 1164,0 1746,0 -168,557 -500,959 -1220,1000 -178,0 -355,0 -533,0 0,169 0,338 0,507 11,530 -338,888 -780,967l-487 0 0 -4154zm3852 -6l319 0c517,0 957,468 957,1000l0 2104 1796 0 0 260c0,420 -381,779 -815,779l-981 0 -1173 0 -103 0 0 -4143zm6852 3126l0 260c0,421 -434,780 -928,780l-1180 0 -1272 0 0 -1040 0 -2086 0 -1040 1272 0 2108 0 0 260c0,421 -434,780 -928,780l-1180 0 0 496 1889 0 0 240c0,389 -401,722 -858,722l-1031 0 0 628 2108 0zm4074 0l0 260c0,421 -434,780 -927,780l-1181 0 -1271 0 0 -1040 0 -2086 0 -1040 1271 0 2108 0 0 260c0,421 -434,780 -927,780l-1181 0 0 496 1890 0 0 240c0,389 -402,722 -858,722l-1032 0 0 628 2108 0zm4212 -3136l0 263c0,426 -387,790 -826,790l-329 0 0 2096c0,508 -444,1041 -964,1041l-322 0 0 -3137 -1186 0 0 -263c0,-426 533,-790 1097,-790l85 0 0 0 2445 0z"/>
   <g>
    <polygon class="fil2" points="21385,26746 20890,26883 20490,26883 24896,22489 25312,22911 25289,21349 26138,21321 25850,23605 "/>
    <path class="fil3" d="M25110 22709l-4220 4174 1556 0c569,24 924,-149 1346,-606l1494 -1559 1776 1791c556,375 765,395 1618,433 746,0 1491,0 2237,0 -1310,-1305 -2620,-2611 -3930,-3916 1310,-1285 2620,-2570 3930,-3855 -972,0 -1783,0 -2756,0 -648,-17 -1171,499 -1769,1071l-1057 1057c-513,-497 -1082,-1022 -1592,-1518 -381,-478 -835,-583 -1295,-610 -879,10 -1757,20 -2635,29l2790 2814c335,237 1162,387 1607,-176l-433 -428 1512 -61 267 249 10 1567 -456 -456z"/>
   </g>
   <g>
    <path class="fil4" d="M23727 27410l447 0 337 0c269,0 490,220 490,490l0 0c0,270 -221,490 -490,490l-337 0c-1,252 -200,458 -445,458l-9 0 0 -1438 7 0zm445 343l251 0c86,0 157,70 157,156l0 0c0,87 -71,157 -157,157l-251 0 0 -313z"/>
    <path class="fil4" d="M26502 27406l80 0 350 0 482 0c221,0 401,181 401,402l0 36c0,148 -89,276 -216,333 225,126 200,310 239,557 0,102 0,0 0,101 -298,-7 -407,-157 -457,-351 -45,-108 -70,-144 -189,-183l-260 0 0 236c4,226 -206,328 -378,315 -35,0 -17,0 -52,0l0 -1446zm428 317l278 0c95,0 173,70 173,157l0 0c0,86 -78,156 -173,156l-278 0 0 -313z"/>
    <path class="fil4" d="M29162 27394l0 91c0,147 -134,272 -285,272l-113 0 0 722c0,175 -153,358 -332,358l-111 0 0 -1080 -409 0 0 -91c0,-146 184,-272 378,-272l30 0 0 0 842 0z"/>
    <path class="fil4" d="M25448 28627c-60,132 -198,187 -357,220 -57,-1 -114,-1 -171,-1 170,-478 340,-956 510,-1434 150,0 300,0 450,0 182,476 364,952 545,1428 -63,0 -126,0 -189,0 -175,3 -290,-68 -344,-213 -148,0 -296,0 -444,0zm188 -702l53 0 111 389 -208 0 44 -389z"/>
    <path class="fil4" d="M30029 27683c311,5 453,-110 462,-317 -266,0 -453,0 -719,0 -642,45 -587,809 -131,841 399,45 583,283 386,327 -69,1 -138,1 -207,2 -494,-19 -543,156 -529,343 245,0 489,0 734,0 517,40 856,-813 4,-960 -481,-62 -374,-265 0,-236z"/>
   </g>
  </g>
 </g>
</svg>
